# xmcd CD database file
#
# Track frame offsets:
#	150
#	16095
#	35049
#	49443
#	79089
#	105660
#	131270
#	155455
#	170108
#	186955
#	204699
#	227343
#	257590
#	278121
#
# Disc length: 4101 seconds
#
# Revision: 0
# Processed by: cddbd v1.5.2PL0 Copyright (c) Steve Scherf et al.
# Submitted via: CDex 1.51
#
DISCID=bb10030e
DTITLE=Various Artist - Master 2011
DYEAR=2011
DGENRE=Jazz
TTITLE0=Rythm Song - Eliel Lazo ft Hanne Boel
TTITLE1=Sway ft Whatever Lola Wants - N Parrott ft K Peplowski
TTITLE2=Always On My Mind - Chie Ayado
TTITLE3=Eleanor Rogby - Minako Yoshida ft K Watanabe
TTITLE4=Ariring - Ulf Wakenius
TTITLE5=Both Sides Now - Unni Wilhelmsen
TTITLE6=Stranger In Paradise - Simone Kopmajer
TTITLE7=The Best Part Of Me - Condy Kvinlaug
TTITLE8=Gragasa - Kari Bremnes
TTITLE9=Funny How Time Slips Away - Hanne Boel ft Mario Biondi
TTITLE10=One Drop Is Plenty - McClain ft Reiersrud
TTITLE11=Mot Alvak Morgon Vestan-fjella Gloder - Asne Valland Nordil
TTITLE12=Only You - Chie Ayado
TTITLE13=Standing Up - Fiona Joy Hawkins
EXTD=YEAR: 2011
EXTT0=
EXTT1=
EXTT2=
EXTT3=
EXTT4=
EXTT5=
EXTT6=
EXTT7=
EXTT8=
EXTT9=
EXTT10=
EXTT11=
EXTT12=
EXTT13=
PLAYORDER=
